<mxfile host="app.diagrams.net" modified="2022-03-22T11:01:05.840Z" agent="5.0 (Macintosh; Intel Mac OS X 10_15_7) AppleWebKit/537.36 (KHTML, like Gecko) Chrome/99.0.4844.74 Safari/537.36" etag="fqRQgqQB0Ogtpk6eutal" version="17.1.3" type="github">
  <diagram id="lw5Qhe2jORE2xL2mB5xB" name="Page-1">
    <mxGraphModel dx="1894" dy="1188" grid="0" gridSize="10" guides="1" tooltips="1" connect="1" arrows="1" fold="1" page="1" pageScale="1" pageWidth="1169" pageHeight="827" math="0" shadow="0">
      <root>
        <mxCell id="0" />
        <mxCell id="1" parent="0" />
        <mxCell id="5M0yCWhsgOrtrZfP5pHo-201" value="" style="whiteSpace=wrap;html=1;aspect=fixed;fontSize=20;strokeWidth=2;" vertex="1" parent="1">
          <mxGeometry x="125" y="384" width="40" height="40" as="geometry" />
        </mxCell>
        <mxCell id="5M0yCWhsgOrtrZfP5pHo-202" value="" style="whiteSpace=wrap;html=1;aspect=fixed;fontSize=20;strokeWidth=2;" vertex="1" parent="1">
          <mxGeometry x="165" y="384" width="40" height="40" as="geometry" />
        </mxCell>
        <mxCell id="5M0yCWhsgOrtrZfP5pHo-203" value="" style="whiteSpace=wrap;html=1;aspect=fixed;fontSize=20;strokeWidth=2;" vertex="1" parent="1">
          <mxGeometry x="125" y="424" width="40" height="40" as="geometry" />
        </mxCell>
        <mxCell id="5M0yCWhsgOrtrZfP5pHo-204" value="" style="whiteSpace=wrap;html=1;aspect=fixed;fontSize=20;strokeWidth=2;" vertex="1" parent="1">
          <mxGeometry x="165" y="424" width="40" height="40" as="geometry" />
        </mxCell>
        <mxCell id="5M0yCWhsgOrtrZfP5pHo-205" value="" style="whiteSpace=wrap;html=1;aspect=fixed;fontSize=20;strokeWidth=2;" vertex="1" parent="1">
          <mxGeometry x="205" y="384" width="40" height="40" as="geometry" />
        </mxCell>
        <mxCell id="5M0yCWhsgOrtrZfP5pHo-206" value="" style="whiteSpace=wrap;html=1;aspect=fixed;fontSize=20;strokeWidth=2;" vertex="1" parent="1">
          <mxGeometry x="205" y="424" width="40" height="40" as="geometry" />
        </mxCell>
        <mxCell id="5M0yCWhsgOrtrZfP5pHo-207" value="" style="whiteSpace=wrap;html=1;aspect=fixed;fontSize=20;strokeWidth=2;" vertex="1" parent="1">
          <mxGeometry x="125" y="464" width="40" height="40" as="geometry" />
        </mxCell>
        <mxCell id="5M0yCWhsgOrtrZfP5pHo-208" value="" style="whiteSpace=wrap;html=1;aspect=fixed;fontSize=20;strokeWidth=2;" vertex="1" parent="1">
          <mxGeometry x="165" y="464" width="40" height="40" as="geometry" />
        </mxCell>
        <mxCell id="5M0yCWhsgOrtrZfP5pHo-209" value="" style="whiteSpace=wrap;html=1;aspect=fixed;fontSize=20;strokeWidth=2;" vertex="1" parent="1">
          <mxGeometry x="205" y="464" width="40" height="40" as="geometry" />
        </mxCell>
        <mxCell id="5M0yCWhsgOrtrZfP5pHo-219" value="" style="whiteSpace=wrap;html=1;aspect=fixed;fontSize=20;strokeWidth=2;" vertex="1" parent="1">
          <mxGeometry x="125" y="504" width="40" height="40" as="geometry" />
        </mxCell>
        <mxCell id="5M0yCWhsgOrtrZfP5pHo-220" value="" style="whiteSpace=wrap;html=1;aspect=fixed;fontSize=20;strokeWidth=2;" vertex="1" parent="1">
          <mxGeometry x="165" y="504" width="40" height="40" as="geometry" />
        </mxCell>
        <mxCell id="5M0yCWhsgOrtrZfP5pHo-221" value="" style="whiteSpace=wrap;html=1;aspect=fixed;fontSize=20;strokeWidth=2;" vertex="1" parent="1">
          <mxGeometry x="125" y="544" width="40" height="40" as="geometry" />
        </mxCell>
        <mxCell id="5M0yCWhsgOrtrZfP5pHo-222" value="" style="whiteSpace=wrap;html=1;aspect=fixed;fontSize=20;strokeWidth=2;" vertex="1" parent="1">
          <mxGeometry x="165" y="544" width="40" height="40" as="geometry" />
        </mxCell>
        <mxCell id="5M0yCWhsgOrtrZfP5pHo-223" value="" style="whiteSpace=wrap;html=1;aspect=fixed;fontSize=20;strokeWidth=2;" vertex="1" parent="1">
          <mxGeometry x="205" y="504" width="40" height="40" as="geometry" />
        </mxCell>
        <mxCell id="5M0yCWhsgOrtrZfP5pHo-224" value="" style="whiteSpace=wrap;html=1;aspect=fixed;fontSize=20;strokeWidth=2;" vertex="1" parent="1">
          <mxGeometry x="205" y="544" width="40" height="40" as="geometry" />
        </mxCell>
        <mxCell id="5M0yCWhsgOrtrZfP5pHo-225" value="" style="whiteSpace=wrap;html=1;aspect=fixed;fontSize=20;strokeWidth=2;" vertex="1" parent="1">
          <mxGeometry x="125" y="584" width="40" height="40" as="geometry" />
        </mxCell>
        <mxCell id="5M0yCWhsgOrtrZfP5pHo-226" value="" style="whiteSpace=wrap;html=1;aspect=fixed;fontSize=20;strokeWidth=2;" vertex="1" parent="1">
          <mxGeometry x="165" y="584" width="40" height="40" as="geometry" />
        </mxCell>
        <mxCell id="5M0yCWhsgOrtrZfP5pHo-227" value="" style="whiteSpace=wrap;html=1;aspect=fixed;fontSize=20;strokeWidth=2;" vertex="1" parent="1">
          <mxGeometry x="205" y="584" width="40" height="40" as="geometry" />
        </mxCell>
        <mxCell id="5M0yCWhsgOrtrZfP5pHo-228" value="" style="whiteSpace=wrap;html=1;aspect=fixed;fontSize=20;strokeWidth=2;" vertex="1" parent="1">
          <mxGeometry x="125" y="624" width="40" height="40" as="geometry" />
        </mxCell>
        <mxCell id="5M0yCWhsgOrtrZfP5pHo-229" value="" style="whiteSpace=wrap;html=1;aspect=fixed;fontSize=20;strokeWidth=2;" vertex="1" parent="1">
          <mxGeometry x="165" y="624" width="40" height="40" as="geometry" />
        </mxCell>
        <mxCell id="5M0yCWhsgOrtrZfP5pHo-230" value="" style="whiteSpace=wrap;html=1;aspect=fixed;fontSize=20;strokeWidth=2;" vertex="1" parent="1">
          <mxGeometry x="205" y="624" width="40" height="40" as="geometry" />
        </mxCell>
        <mxCell id="5M0yCWhsgOrtrZfP5pHo-231" value="" style="whiteSpace=wrap;html=1;aspect=fixed;fontSize=20;strokeWidth=2;" vertex="1" parent="1">
          <mxGeometry x="245" y="384" width="40" height="40" as="geometry" />
        </mxCell>
        <mxCell id="5M0yCWhsgOrtrZfP5pHo-232" value="" style="whiteSpace=wrap;html=1;aspect=fixed;fontSize=20;strokeWidth=2;" vertex="1" parent="1">
          <mxGeometry x="285" y="384" width="40" height="40" as="geometry" />
        </mxCell>
        <mxCell id="5M0yCWhsgOrtrZfP5pHo-233" value="" style="whiteSpace=wrap;html=1;aspect=fixed;fontSize=20;strokeWidth=2;" vertex="1" parent="1">
          <mxGeometry x="245" y="424" width="40" height="40" as="geometry" />
        </mxCell>
        <mxCell id="5M0yCWhsgOrtrZfP5pHo-234" value="" style="whiteSpace=wrap;html=1;aspect=fixed;fontSize=20;strokeWidth=2;" vertex="1" parent="1">
          <mxGeometry x="285" y="424" width="40" height="40" as="geometry" />
        </mxCell>
        <mxCell id="5M0yCWhsgOrtrZfP5pHo-235" value="" style="whiteSpace=wrap;html=1;aspect=fixed;fontSize=20;strokeWidth=2;" vertex="1" parent="1">
          <mxGeometry x="325" y="384" width="40" height="40" as="geometry" />
        </mxCell>
        <mxCell id="5M0yCWhsgOrtrZfP5pHo-236" value="" style="whiteSpace=wrap;html=1;aspect=fixed;fontSize=20;strokeWidth=2;" vertex="1" parent="1">
          <mxGeometry x="325" y="424" width="40" height="40" as="geometry" />
        </mxCell>
        <mxCell id="5M0yCWhsgOrtrZfP5pHo-237" value="" style="whiteSpace=wrap;html=1;aspect=fixed;fontSize=20;strokeWidth=2;" vertex="1" parent="1">
          <mxGeometry x="245" y="464" width="40" height="40" as="geometry" />
        </mxCell>
        <mxCell id="5M0yCWhsgOrtrZfP5pHo-238" value="" style="whiteSpace=wrap;html=1;aspect=fixed;fontSize=20;strokeWidth=2;" vertex="1" parent="1">
          <mxGeometry x="285" y="464" width="40" height="40" as="geometry" />
        </mxCell>
        <mxCell id="5M0yCWhsgOrtrZfP5pHo-239" value="" style="whiteSpace=wrap;html=1;aspect=fixed;fontSize=20;strokeWidth=2;" vertex="1" parent="1">
          <mxGeometry x="325" y="464" width="40" height="40" as="geometry" />
        </mxCell>
        <mxCell id="5M0yCWhsgOrtrZfP5pHo-240" value="" style="whiteSpace=wrap;html=1;aspect=fixed;fontSize=20;strokeWidth=2;" vertex="1" parent="1">
          <mxGeometry x="245" y="504" width="40" height="40" as="geometry" />
        </mxCell>
        <mxCell id="5M0yCWhsgOrtrZfP5pHo-241" value="" style="whiteSpace=wrap;html=1;aspect=fixed;fontSize=20;strokeWidth=2;" vertex="1" parent="1">
          <mxGeometry x="285" y="504" width="40" height="40" as="geometry" />
        </mxCell>
        <mxCell id="5M0yCWhsgOrtrZfP5pHo-242" value="" style="whiteSpace=wrap;html=1;aspect=fixed;fontSize=20;strokeWidth=2;" vertex="1" parent="1">
          <mxGeometry x="245" y="544" width="40" height="40" as="geometry" />
        </mxCell>
        <mxCell id="5M0yCWhsgOrtrZfP5pHo-243" value="" style="whiteSpace=wrap;html=1;aspect=fixed;fontSize=20;strokeWidth=2;" vertex="1" parent="1">
          <mxGeometry x="285" y="544" width="40" height="40" as="geometry" />
        </mxCell>
        <mxCell id="5M0yCWhsgOrtrZfP5pHo-244" value="" style="whiteSpace=wrap;html=1;aspect=fixed;fontSize=20;strokeWidth=2;" vertex="1" parent="1">
          <mxGeometry x="325" y="504" width="40" height="40" as="geometry" />
        </mxCell>
        <mxCell id="5M0yCWhsgOrtrZfP5pHo-245" value="" style="whiteSpace=wrap;html=1;aspect=fixed;fontSize=20;strokeWidth=2;" vertex="1" parent="1">
          <mxGeometry x="325" y="544" width="40" height="40" as="geometry" />
        </mxCell>
        <mxCell id="5M0yCWhsgOrtrZfP5pHo-246" value="" style="whiteSpace=wrap;html=1;aspect=fixed;fontSize=20;strokeWidth=2;" vertex="1" parent="1">
          <mxGeometry x="245" y="584" width="40" height="40" as="geometry" />
        </mxCell>
        <mxCell id="5M0yCWhsgOrtrZfP5pHo-247" value="" style="whiteSpace=wrap;html=1;aspect=fixed;fontSize=20;strokeWidth=2;" vertex="1" parent="1">
          <mxGeometry x="285" y="584" width="40" height="40" as="geometry" />
        </mxCell>
        <mxCell id="5M0yCWhsgOrtrZfP5pHo-248" value="" style="whiteSpace=wrap;html=1;aspect=fixed;fontSize=20;strokeWidth=2;" vertex="1" parent="1">
          <mxGeometry x="325" y="584" width="40" height="40" as="geometry" />
        </mxCell>
        <mxCell id="5M0yCWhsgOrtrZfP5pHo-249" value="" style="whiteSpace=wrap;html=1;aspect=fixed;fontSize=20;strokeWidth=2;" vertex="1" parent="1">
          <mxGeometry x="245" y="624" width="40" height="40" as="geometry" />
        </mxCell>
        <mxCell id="5M0yCWhsgOrtrZfP5pHo-250" value="" style="whiteSpace=wrap;html=1;aspect=fixed;fontSize=20;strokeWidth=2;" vertex="1" parent="1">
          <mxGeometry x="285" y="624" width="40" height="40" as="geometry" />
        </mxCell>
        <mxCell id="5M0yCWhsgOrtrZfP5pHo-251" value="" style="whiteSpace=wrap;html=1;aspect=fixed;fontSize=20;strokeWidth=2;" vertex="1" parent="1">
          <mxGeometry x="325" y="624" width="40" height="40" as="geometry" />
        </mxCell>
        <mxCell id="5M0yCWhsgOrtrZfP5pHo-252" value="" style="whiteSpace=wrap;html=1;aspect=fixed;fontSize=20;strokeWidth=2;" vertex="1" parent="1">
          <mxGeometry x="365" y="384" width="40" height="40" as="geometry" />
        </mxCell>
        <mxCell id="5M0yCWhsgOrtrZfP5pHo-253" value="" style="whiteSpace=wrap;html=1;aspect=fixed;fontSize=20;strokeWidth=2;" vertex="1" parent="1">
          <mxGeometry x="365" y="424" width="40" height="40" as="geometry" />
        </mxCell>
        <mxCell id="5M0yCWhsgOrtrZfP5pHo-254" value="" style="whiteSpace=wrap;html=1;aspect=fixed;fontSize=20;strokeWidth=2;" vertex="1" parent="1">
          <mxGeometry x="365" y="464" width="40" height="40" as="geometry" />
        </mxCell>
        <mxCell id="5M0yCWhsgOrtrZfP5pHo-255" value="" style="whiteSpace=wrap;html=1;aspect=fixed;fontSize=20;strokeWidth=2;" vertex="1" parent="1">
          <mxGeometry x="365" y="504" width="40" height="40" as="geometry" />
        </mxCell>
        <mxCell id="5M0yCWhsgOrtrZfP5pHo-256" value="" style="whiteSpace=wrap;html=1;aspect=fixed;fontSize=20;strokeWidth=2;" vertex="1" parent="1">
          <mxGeometry x="365" y="544" width="40" height="40" as="geometry" />
        </mxCell>
        <mxCell id="5M0yCWhsgOrtrZfP5pHo-257" value="" style="whiteSpace=wrap;html=1;aspect=fixed;fontSize=20;strokeWidth=2;" vertex="1" parent="1">
          <mxGeometry x="365" y="584" width="40" height="40" as="geometry" />
        </mxCell>
        <mxCell id="5M0yCWhsgOrtrZfP5pHo-258" value="" style="whiteSpace=wrap;html=1;aspect=fixed;fontSize=20;strokeWidth=2;" vertex="1" parent="1">
          <mxGeometry x="365" y="624" width="40" height="40" as="geometry" />
        </mxCell>
        <mxCell id="5M0yCWhsgOrtrZfP5pHo-261" value="" style="whiteSpace=wrap;html=1;aspect=fixed;fontSize=20;strokeWidth=2;" vertex="1" parent="1">
          <mxGeometry x="765" y="429" width="40" height="40" as="geometry" />
        </mxCell>
        <mxCell id="5M0yCWhsgOrtrZfP5pHo-262" value="" style="whiteSpace=wrap;html=1;aspect=fixed;fontSize=20;strokeWidth=2;" vertex="1" parent="1">
          <mxGeometry x="805" y="429" width="40" height="40" as="geometry" />
        </mxCell>
        <mxCell id="5M0yCWhsgOrtrZfP5pHo-263" value="" style="whiteSpace=wrap;html=1;aspect=fixed;fontSize=20;strokeWidth=2;" vertex="1" parent="1">
          <mxGeometry x="765" y="469" width="40" height="40" as="geometry" />
        </mxCell>
        <mxCell id="5M0yCWhsgOrtrZfP5pHo-264" value="" style="whiteSpace=wrap;html=1;aspect=fixed;fontSize=20;strokeWidth=2;" vertex="1" parent="1">
          <mxGeometry x="805" y="469" width="40" height="40" as="geometry" />
        </mxCell>
        <mxCell id="5M0yCWhsgOrtrZfP5pHo-265" value="" style="whiteSpace=wrap;html=1;aspect=fixed;fontSize=20;strokeWidth=2;" vertex="1" parent="1">
          <mxGeometry x="845" y="429" width="40" height="40" as="geometry" />
        </mxCell>
        <mxCell id="5M0yCWhsgOrtrZfP5pHo-266" value="" style="whiteSpace=wrap;html=1;aspect=fixed;fontSize=20;strokeWidth=2;" vertex="1" parent="1">
          <mxGeometry x="845" y="469" width="40" height="40" as="geometry" />
        </mxCell>
        <mxCell id="5M0yCWhsgOrtrZfP5pHo-267" value="" style="whiteSpace=wrap;html=1;aspect=fixed;fontSize=20;strokeWidth=2;" vertex="1" parent="1">
          <mxGeometry x="765" y="509" width="40" height="40" as="geometry" />
        </mxCell>
        <mxCell id="5M0yCWhsgOrtrZfP5pHo-268" value="" style="whiteSpace=wrap;html=1;aspect=fixed;fontSize=20;strokeWidth=2;" vertex="1" parent="1">
          <mxGeometry x="805" y="509" width="40" height="40" as="geometry" />
        </mxCell>
        <mxCell id="5M0yCWhsgOrtrZfP5pHo-269" value="" style="whiteSpace=wrap;html=1;aspect=fixed;fontSize=20;strokeWidth=2;" vertex="1" parent="1">
          <mxGeometry x="845" y="509" width="40" height="40" as="geometry" />
        </mxCell>
        <mxCell id="5M0yCWhsgOrtrZfP5pHo-270" value="" style="whiteSpace=wrap;html=1;aspect=fixed;fontSize=20;strokeWidth=2;" vertex="1" parent="1">
          <mxGeometry x="765" y="549" width="40" height="40" as="geometry" />
        </mxCell>
        <mxCell id="5M0yCWhsgOrtrZfP5pHo-271" value="" style="whiteSpace=wrap;html=1;aspect=fixed;fontSize=20;strokeWidth=2;" vertex="1" parent="1">
          <mxGeometry x="805" y="549" width="40" height="40" as="geometry" />
        </mxCell>
        <mxCell id="5M0yCWhsgOrtrZfP5pHo-272" value="" style="whiteSpace=wrap;html=1;aspect=fixed;fontSize=20;strokeWidth=2;" vertex="1" parent="1">
          <mxGeometry x="765" y="589" width="40" height="40" as="geometry" />
        </mxCell>
        <mxCell id="5M0yCWhsgOrtrZfP5pHo-273" value="" style="whiteSpace=wrap;html=1;aspect=fixed;fontSize=20;strokeWidth=2;" vertex="1" parent="1">
          <mxGeometry x="805" y="589" width="40" height="40" as="geometry" />
        </mxCell>
        <mxCell id="5M0yCWhsgOrtrZfP5pHo-274" value="" style="whiteSpace=wrap;html=1;aspect=fixed;fontSize=20;strokeWidth=2;" vertex="1" parent="1">
          <mxGeometry x="845" y="549" width="40" height="40" as="geometry" />
        </mxCell>
        <mxCell id="5M0yCWhsgOrtrZfP5pHo-275" value="" style="whiteSpace=wrap;html=1;aspect=fixed;fontSize=20;strokeWidth=2;" vertex="1" parent="1">
          <mxGeometry x="845" y="589" width="40" height="40" as="geometry" />
        </mxCell>
        <mxCell id="5M0yCWhsgOrtrZfP5pHo-276" value="" style="whiteSpace=wrap;html=1;aspect=fixed;fontSize=20;strokeWidth=2;" vertex="1" parent="1">
          <mxGeometry x="885" y="429" width="40" height="40" as="geometry" />
        </mxCell>
        <mxCell id="5M0yCWhsgOrtrZfP5pHo-277" value="" style="whiteSpace=wrap;html=1;aspect=fixed;fontSize=20;strokeWidth=2;" vertex="1" parent="1">
          <mxGeometry x="925" y="429" width="40" height="40" as="geometry" />
        </mxCell>
        <mxCell id="5M0yCWhsgOrtrZfP5pHo-278" value="" style="whiteSpace=wrap;html=1;aspect=fixed;fontSize=20;strokeWidth=2;" vertex="1" parent="1">
          <mxGeometry x="885" y="469" width="40" height="40" as="geometry" />
        </mxCell>
        <mxCell id="5M0yCWhsgOrtrZfP5pHo-279" value="" style="whiteSpace=wrap;html=1;aspect=fixed;fontSize=20;strokeWidth=2;" vertex="1" parent="1">
          <mxGeometry x="925" y="469" width="40" height="40" as="geometry" />
        </mxCell>
        <mxCell id="5M0yCWhsgOrtrZfP5pHo-280" value="" style="whiteSpace=wrap;html=1;aspect=fixed;fontSize=20;strokeWidth=2;" vertex="1" parent="1">
          <mxGeometry x="885" y="509" width="40" height="40" as="geometry" />
        </mxCell>
        <mxCell id="5M0yCWhsgOrtrZfP5pHo-281" value="" style="whiteSpace=wrap;html=1;aspect=fixed;fontSize=20;strokeWidth=2;" vertex="1" parent="1">
          <mxGeometry x="925" y="509" width="40" height="40" as="geometry" />
        </mxCell>
        <mxCell id="5M0yCWhsgOrtrZfP5pHo-282" value="" style="whiteSpace=wrap;html=1;aspect=fixed;fontSize=20;strokeWidth=2;" vertex="1" parent="1">
          <mxGeometry x="885" y="549" width="40" height="40" as="geometry" />
        </mxCell>
        <mxCell id="5M0yCWhsgOrtrZfP5pHo-283" value="" style="whiteSpace=wrap;html=1;aspect=fixed;fontSize=20;strokeWidth=2;" vertex="1" parent="1">
          <mxGeometry x="925" y="549" width="40" height="40" as="geometry" />
        </mxCell>
        <mxCell id="5M0yCWhsgOrtrZfP5pHo-284" value="" style="whiteSpace=wrap;html=1;aspect=fixed;fontSize=20;strokeWidth=2;" vertex="1" parent="1">
          <mxGeometry x="885" y="589" width="40" height="40" as="geometry" />
        </mxCell>
        <mxCell id="5M0yCWhsgOrtrZfP5pHo-285" value="" style="whiteSpace=wrap;html=1;aspect=fixed;fontSize=20;strokeWidth=2;" vertex="1" parent="1">
          <mxGeometry x="925" y="589" width="40" height="40" as="geometry" />
        </mxCell>
        <mxCell id="5M0yCWhsgOrtrZfP5pHo-295" value="" style="whiteSpace=wrap;html=1;aspect=fixed;fontSize=20;strokeWidth=2;" vertex="1" parent="1">
          <mxGeometry x="485" y="424" width="70" height="70" as="geometry" />
        </mxCell>
        <mxCell id="5M0yCWhsgOrtrZfP5pHo-296" value="" style="whiteSpace=wrap;html=1;aspect=fixed;fontSize=20;strokeWidth=2;" vertex="1" parent="1">
          <mxGeometry x="485" y="494" width="70" height="70" as="geometry" />
        </mxCell>
        <mxCell id="5M0yCWhsgOrtrZfP5pHo-297" value="" style="whiteSpace=wrap;html=1;aspect=fixed;fontSize=20;strokeWidth=2;" vertex="1" parent="1">
          <mxGeometry x="485" y="564" width="70" height="70" as="geometry" />
        </mxCell>
        <mxCell id="5M0yCWhsgOrtrZfP5pHo-298" value="" style="whiteSpace=wrap;html=1;aspect=fixed;fontSize=20;strokeWidth=2;" vertex="1" parent="1">
          <mxGeometry x="555" y="424" width="70" height="70" as="geometry" />
        </mxCell>
        <mxCell id="5M0yCWhsgOrtrZfP5pHo-299" value="" style="whiteSpace=wrap;html=1;aspect=fixed;fontSize=20;strokeWidth=2;" vertex="1" parent="1">
          <mxGeometry x="555" y="494" width="70" height="70" as="geometry" />
        </mxCell>
        <mxCell id="5M0yCWhsgOrtrZfP5pHo-300" value="" style="whiteSpace=wrap;html=1;aspect=fixed;fontSize=20;strokeWidth=2;" vertex="1" parent="1">
          <mxGeometry x="555" y="564" width="70" height="70" as="geometry" />
        </mxCell>
        <mxCell id="5M0yCWhsgOrtrZfP5pHo-301" value="" style="whiteSpace=wrap;html=1;aspect=fixed;fontSize=20;strokeWidth=2;" vertex="1" parent="1">
          <mxGeometry x="625" y="424" width="70" height="70" as="geometry" />
        </mxCell>
        <mxCell id="5M0yCWhsgOrtrZfP5pHo-302" value="" style="whiteSpace=wrap;html=1;aspect=fixed;fontSize=20;strokeWidth=2;" vertex="1" parent="1">
          <mxGeometry x="625" y="494" width="70" height="70" as="geometry" />
        </mxCell>
        <mxCell id="5M0yCWhsgOrtrZfP5pHo-303" value="" style="whiteSpace=wrap;html=1;aspect=fixed;fontSize=20;strokeWidth=2;" vertex="1" parent="1">
          <mxGeometry x="625" y="564" width="70" height="70" as="geometry" />
        </mxCell>
        <mxCell id="5M0yCWhsgOrtrZfP5pHo-304" value="0" style="text;html=1;strokeColor=none;fillColor=none;align=center;verticalAlign=middle;whiteSpace=wrap;rounded=0;fontSize=20;" vertex="1" parent="1">
          <mxGeometry x="115" y="389" width="60" height="30" as="geometry" />
        </mxCell>
        <mxCell id="5M0yCWhsgOrtrZfP5pHo-305" value="0" style="text;html=1;strokeColor=none;fillColor=none;align=center;verticalAlign=middle;whiteSpace=wrap;rounded=0;fontSize=20;" vertex="1" parent="1">
          <mxGeometry x="155" y="389" width="60" height="30" as="geometry" />
        </mxCell>
        <mxCell id="5M0yCWhsgOrtrZfP5pHo-306" value="0" style="text;html=1;strokeColor=none;fillColor=none;align=center;verticalAlign=middle;whiteSpace=wrap;rounded=0;fontSize=20;" vertex="1" parent="1">
          <mxGeometry x="195" y="389" width="60" height="30" as="geometry" />
        </mxCell>
        <mxCell id="5M0yCWhsgOrtrZfP5pHo-307" value="0" style="text;html=1;strokeColor=none;fillColor=none;align=center;verticalAlign=middle;whiteSpace=wrap;rounded=0;fontSize=20;" vertex="1" parent="1">
          <mxGeometry x="235" y="389" width="60" height="30" as="geometry" />
        </mxCell>
        <mxCell id="5M0yCWhsgOrtrZfP5pHo-308" value="0" style="text;html=1;strokeColor=none;fillColor=none;align=center;verticalAlign=middle;whiteSpace=wrap;rounded=0;fontSize=20;" vertex="1" parent="1">
          <mxGeometry x="275" y="389" width="60" height="30" as="geometry" />
        </mxCell>
        <mxCell id="5M0yCWhsgOrtrZfP5pHo-309" value="0" style="text;html=1;strokeColor=none;fillColor=none;align=center;verticalAlign=middle;whiteSpace=wrap;rounded=0;fontSize=20;" vertex="1" parent="1">
          <mxGeometry x="315" y="389" width="60" height="30" as="geometry" />
        </mxCell>
        <mxCell id="5M0yCWhsgOrtrZfP5pHo-310" value="0" style="text;html=1;strokeColor=none;fillColor=none;align=center;verticalAlign=middle;whiteSpace=wrap;rounded=0;fontSize=20;" vertex="1" parent="1">
          <mxGeometry x="355" y="389" width="60" height="30" as="geometry" />
        </mxCell>
        <mxCell id="5M0yCWhsgOrtrZfP5pHo-311" value="0" style="text;html=1;strokeColor=none;fillColor=none;align=center;verticalAlign=middle;whiteSpace=wrap;rounded=0;fontSize=20;" vertex="1" parent="1">
          <mxGeometry x="115" y="429" width="60" height="30" as="geometry" />
        </mxCell>
        <mxCell id="5M0yCWhsgOrtrZfP5pHo-312" value="1" style="text;html=1;strokeColor=none;fillColor=none;align=center;verticalAlign=middle;whiteSpace=wrap;rounded=0;fontSize=20;" vertex="1" parent="1">
          <mxGeometry x="155" y="429" width="60" height="30" as="geometry" />
        </mxCell>
        <mxCell id="5M0yCWhsgOrtrZfP5pHo-313" value="0" style="text;html=1;strokeColor=none;fillColor=none;align=center;verticalAlign=middle;whiteSpace=wrap;rounded=0;fontSize=20;" vertex="1" parent="1">
          <mxGeometry x="235" y="429" width="60" height="30" as="geometry" />
        </mxCell>
        <mxCell id="5M0yCWhsgOrtrZfP5pHo-314" value="0" style="text;html=1;strokeColor=none;fillColor=none;align=center;verticalAlign=middle;whiteSpace=wrap;rounded=0;fontSize=20;" vertex="1" parent="1">
          <mxGeometry x="275" y="429" width="60" height="30" as="geometry" />
        </mxCell>
        <mxCell id="5M0yCWhsgOrtrZfP5pHo-315" value="1" style="text;html=1;strokeColor=none;fillColor=none;align=center;verticalAlign=middle;whiteSpace=wrap;rounded=0;fontSize=20;" vertex="1" parent="1">
          <mxGeometry x="315" y="429" width="60" height="30" as="geometry" />
        </mxCell>
        <mxCell id="5M0yCWhsgOrtrZfP5pHo-316" value="0" style="text;html=1;strokeColor=none;fillColor=none;align=center;verticalAlign=middle;whiteSpace=wrap;rounded=0;fontSize=20;" vertex="1" parent="1">
          <mxGeometry x="355" y="429" width="60" height="30" as="geometry" />
        </mxCell>
        <mxCell id="5M0yCWhsgOrtrZfP5pHo-317" value="0" style="text;html=1;strokeColor=none;fillColor=none;align=center;verticalAlign=middle;whiteSpace=wrap;rounded=0;fontSize=20;" vertex="1" parent="1">
          <mxGeometry x="115" y="469" width="60" height="30" as="geometry" />
        </mxCell>
        <mxCell id="5M0yCWhsgOrtrZfP5pHo-318" value="0" style="text;html=1;strokeColor=none;fillColor=none;align=center;verticalAlign=middle;whiteSpace=wrap;rounded=0;fontSize=20;" vertex="1" parent="1">
          <mxGeometry x="155" y="469" width="60" height="30" as="geometry" />
        </mxCell>
        <mxCell id="5M0yCWhsgOrtrZfP5pHo-319" value="0" style="text;html=1;strokeColor=none;fillColor=none;align=center;verticalAlign=middle;whiteSpace=wrap;rounded=0;fontSize=20;" vertex="1" parent="1">
          <mxGeometry x="235" y="469" width="60" height="30" as="geometry" />
        </mxCell>
        <mxCell id="5M0yCWhsgOrtrZfP5pHo-320" value="0" style="text;html=1;strokeColor=none;fillColor=none;align=center;verticalAlign=middle;whiteSpace=wrap;rounded=0;fontSize=20;" vertex="1" parent="1">
          <mxGeometry x="275" y="469" width="60" height="30" as="geometry" />
        </mxCell>
        <mxCell id="5M0yCWhsgOrtrZfP5pHo-321" value="0" style="text;html=1;strokeColor=none;fillColor=none;align=center;verticalAlign=middle;whiteSpace=wrap;rounded=0;fontSize=20;" vertex="1" parent="1">
          <mxGeometry x="315" y="469" width="60" height="30" as="geometry" />
        </mxCell>
        <mxCell id="5M0yCWhsgOrtrZfP5pHo-322" value="0" style="text;html=1;strokeColor=none;fillColor=none;align=center;verticalAlign=middle;whiteSpace=wrap;rounded=0;fontSize=20;" vertex="1" parent="1">
          <mxGeometry x="355" y="469" width="60" height="30" as="geometry" />
        </mxCell>
        <mxCell id="5M0yCWhsgOrtrZfP5pHo-323" value="0" style="text;html=1;strokeColor=none;fillColor=none;align=center;verticalAlign=middle;whiteSpace=wrap;rounded=0;fontSize=20;" vertex="1" parent="1">
          <mxGeometry x="115" y="509" width="60" height="30" as="geometry" />
        </mxCell>
        <mxCell id="5M0yCWhsgOrtrZfP5pHo-324" value="0" style="text;html=1;strokeColor=none;fillColor=none;align=center;verticalAlign=middle;whiteSpace=wrap;rounded=0;fontSize=20;" vertex="1" parent="1">
          <mxGeometry x="155" y="509" width="60" height="30" as="geometry" />
        </mxCell>
        <mxCell id="5M0yCWhsgOrtrZfP5pHo-325" value="1" style="text;html=1;strokeColor=none;fillColor=none;align=center;verticalAlign=middle;whiteSpace=wrap;rounded=0;fontSize=20;" vertex="1" parent="1">
          <mxGeometry x="235" y="509" width="60" height="30" as="geometry" />
        </mxCell>
        <mxCell id="5M0yCWhsgOrtrZfP5pHo-326" value="0" style="text;html=1;strokeColor=none;fillColor=none;align=center;verticalAlign=middle;whiteSpace=wrap;rounded=0;fontSize=20;" vertex="1" parent="1">
          <mxGeometry x="275" y="509" width="60" height="30" as="geometry" />
        </mxCell>
        <mxCell id="5M0yCWhsgOrtrZfP5pHo-327" value="0" style="text;html=1;strokeColor=none;fillColor=none;align=center;verticalAlign=middle;whiteSpace=wrap;rounded=0;fontSize=20;" vertex="1" parent="1">
          <mxGeometry x="315" y="509" width="60" height="30" as="geometry" />
        </mxCell>
        <mxCell id="5M0yCWhsgOrtrZfP5pHo-328" value="0" style="text;html=1;strokeColor=none;fillColor=none;align=center;verticalAlign=middle;whiteSpace=wrap;rounded=0;fontSize=20;" vertex="1" parent="1">
          <mxGeometry x="355" y="509" width="60" height="30" as="geometry" />
        </mxCell>
        <mxCell id="5M0yCWhsgOrtrZfP5pHo-329" value="0" style="text;html=1;strokeColor=none;fillColor=none;align=center;verticalAlign=middle;whiteSpace=wrap;rounded=0;fontSize=20;" vertex="1" parent="1">
          <mxGeometry x="195" y="429" width="60" height="30" as="geometry" />
        </mxCell>
        <mxCell id="5M0yCWhsgOrtrZfP5pHo-330" value="0" style="text;html=1;strokeColor=none;fillColor=none;align=center;verticalAlign=middle;whiteSpace=wrap;rounded=0;fontSize=20;" vertex="1" parent="1">
          <mxGeometry x="195" y="469" width="60" height="30" as="geometry" />
        </mxCell>
        <mxCell id="5M0yCWhsgOrtrZfP5pHo-331" value="0" style="text;html=1;strokeColor=none;fillColor=none;align=center;verticalAlign=middle;whiteSpace=wrap;rounded=0;fontSize=20;" vertex="1" parent="1">
          <mxGeometry x="195" y="509" width="60" height="30" as="geometry" />
        </mxCell>
        <mxCell id="5M0yCWhsgOrtrZfP5pHo-339" value="0" style="text;html=1;strokeColor=none;fillColor=none;align=center;verticalAlign=middle;whiteSpace=wrap;rounded=0;fontSize=20;" vertex="1" parent="1">
          <mxGeometry x="115" y="549" width="60" height="30" as="geometry" />
        </mxCell>
        <mxCell id="5M0yCWhsgOrtrZfP5pHo-340" value="1" style="text;html=1;strokeColor=none;fillColor=none;align=center;verticalAlign=middle;whiteSpace=wrap;rounded=0;fontSize=20;" vertex="1" parent="1">
          <mxGeometry x="155" y="549" width="60" height="30" as="geometry" />
        </mxCell>
        <mxCell id="5M0yCWhsgOrtrZfP5pHo-341" value="0" style="text;html=1;strokeColor=none;fillColor=none;align=center;verticalAlign=middle;whiteSpace=wrap;rounded=0;fontSize=20;" vertex="1" parent="1">
          <mxGeometry x="195" y="549" width="60" height="30" as="geometry" />
        </mxCell>
        <mxCell id="5M0yCWhsgOrtrZfP5pHo-342" value="0" style="text;html=1;strokeColor=none;fillColor=none;align=center;verticalAlign=middle;whiteSpace=wrap;rounded=0;fontSize=20;" vertex="1" parent="1">
          <mxGeometry x="235" y="549" width="60" height="30" as="geometry" />
        </mxCell>
        <mxCell id="5M0yCWhsgOrtrZfP5pHo-343" value="0" style="text;html=1;strokeColor=none;fillColor=none;align=center;verticalAlign=middle;whiteSpace=wrap;rounded=0;fontSize=20;" vertex="1" parent="1">
          <mxGeometry x="275" y="549" width="60" height="30" as="geometry" />
        </mxCell>
        <mxCell id="5M0yCWhsgOrtrZfP5pHo-344" value="1" style="text;html=1;strokeColor=none;fillColor=none;align=center;verticalAlign=middle;whiteSpace=wrap;rounded=0;fontSize=20;" vertex="1" parent="1">
          <mxGeometry x="315" y="549" width="60" height="30" as="geometry" />
        </mxCell>
        <mxCell id="5M0yCWhsgOrtrZfP5pHo-345" value="0" style="text;html=1;strokeColor=none;fillColor=none;align=center;verticalAlign=middle;whiteSpace=wrap;rounded=0;fontSize=20;" vertex="1" parent="1">
          <mxGeometry x="355" y="549" width="60" height="30" as="geometry" />
        </mxCell>
        <mxCell id="5M0yCWhsgOrtrZfP5pHo-346" value="0" style="text;html=1;strokeColor=none;fillColor=none;align=center;verticalAlign=middle;whiteSpace=wrap;rounded=0;fontSize=20;" vertex="1" parent="1">
          <mxGeometry x="115" y="589" width="60" height="30" as="geometry" />
        </mxCell>
        <mxCell id="5M0yCWhsgOrtrZfP5pHo-347" value="0" style="text;html=1;strokeColor=none;fillColor=none;align=center;verticalAlign=middle;whiteSpace=wrap;rounded=0;fontSize=20;" vertex="1" parent="1">
          <mxGeometry x="155" y="589" width="60" height="30" as="geometry" />
        </mxCell>
        <mxCell id="5M0yCWhsgOrtrZfP5pHo-348" value="1" style="text;html=1;strokeColor=none;fillColor=none;align=center;verticalAlign=middle;whiteSpace=wrap;rounded=0;fontSize=20;" vertex="1" parent="1">
          <mxGeometry x="195" y="589" width="60" height="30" as="geometry" />
        </mxCell>
        <mxCell id="5M0yCWhsgOrtrZfP5pHo-349" value="1" style="text;html=1;strokeColor=none;fillColor=none;align=center;verticalAlign=middle;whiteSpace=wrap;rounded=0;fontSize=20;" vertex="1" parent="1">
          <mxGeometry x="235" y="589" width="60" height="30" as="geometry" />
        </mxCell>
        <mxCell id="5M0yCWhsgOrtrZfP5pHo-350" value="1" style="text;html=1;strokeColor=none;fillColor=none;align=center;verticalAlign=middle;whiteSpace=wrap;rounded=0;fontSize=20;" vertex="1" parent="1">
          <mxGeometry x="275" y="589" width="60" height="30" as="geometry" />
        </mxCell>
        <mxCell id="5M0yCWhsgOrtrZfP5pHo-351" value="0" style="text;html=1;strokeColor=none;fillColor=none;align=center;verticalAlign=middle;whiteSpace=wrap;rounded=0;fontSize=20;" vertex="1" parent="1">
          <mxGeometry x="315" y="589" width="60" height="30" as="geometry" />
        </mxCell>
        <mxCell id="5M0yCWhsgOrtrZfP5pHo-352" value="0" style="text;html=1;strokeColor=none;fillColor=none;align=center;verticalAlign=middle;whiteSpace=wrap;rounded=0;fontSize=20;" vertex="1" parent="1">
          <mxGeometry x="355" y="589" width="60" height="30" as="geometry" />
        </mxCell>
        <mxCell id="5M0yCWhsgOrtrZfP5pHo-353" value="0" style="text;html=1;strokeColor=none;fillColor=none;align=center;verticalAlign=middle;whiteSpace=wrap;rounded=0;fontSize=20;" vertex="1" parent="1">
          <mxGeometry x="115" y="629" width="60" height="30" as="geometry" />
        </mxCell>
        <mxCell id="5M0yCWhsgOrtrZfP5pHo-354" value="0" style="text;html=1;strokeColor=none;fillColor=none;align=center;verticalAlign=middle;whiteSpace=wrap;rounded=0;fontSize=20;" vertex="1" parent="1">
          <mxGeometry x="155" y="629" width="60" height="30" as="geometry" />
        </mxCell>
        <mxCell id="5M0yCWhsgOrtrZfP5pHo-355" value="0" style="text;html=1;strokeColor=none;fillColor=none;align=center;verticalAlign=middle;whiteSpace=wrap;rounded=0;fontSize=20;" vertex="1" parent="1">
          <mxGeometry x="195" y="629" width="60" height="30" as="geometry" />
        </mxCell>
        <mxCell id="5M0yCWhsgOrtrZfP5pHo-356" value="0" style="text;html=1;strokeColor=none;fillColor=none;align=center;verticalAlign=middle;whiteSpace=wrap;rounded=0;fontSize=20;" vertex="1" parent="1">
          <mxGeometry x="235" y="629" width="60" height="30" as="geometry" />
        </mxCell>
        <mxCell id="5M0yCWhsgOrtrZfP5pHo-357" value="0" style="text;html=1;strokeColor=none;fillColor=none;align=center;verticalAlign=middle;whiteSpace=wrap;rounded=0;fontSize=20;" vertex="1" parent="1">
          <mxGeometry x="275" y="629" width="60" height="30" as="geometry" />
        </mxCell>
        <mxCell id="5M0yCWhsgOrtrZfP5pHo-358" value="0" style="text;html=1;strokeColor=none;fillColor=none;align=center;verticalAlign=middle;whiteSpace=wrap;rounded=0;fontSize=20;" vertex="1" parent="1">
          <mxGeometry x="315" y="629" width="60" height="30" as="geometry" />
        </mxCell>
        <mxCell id="5M0yCWhsgOrtrZfP5pHo-359" value="0" style="text;html=1;strokeColor=none;fillColor=none;align=center;verticalAlign=middle;whiteSpace=wrap;rounded=0;fontSize=20;" vertex="1" parent="1">
          <mxGeometry x="355" y="629" width="60" height="30" as="geometry" />
        </mxCell>
        <mxCell id="5M0yCWhsgOrtrZfP5pHo-360" value="0" style="text;html=1;strokeColor=none;fillColor=none;align=center;verticalAlign=middle;whiteSpace=wrap;rounded=0;fontSize=20;" vertex="1" parent="1">
          <mxGeometry x="755" y="434" width="60" height="30" as="geometry" />
        </mxCell>
        <mxCell id="5M0yCWhsgOrtrZfP5pHo-361" value="1" style="text;html=1;strokeColor=none;fillColor=none;align=center;verticalAlign=middle;whiteSpace=wrap;rounded=0;fontSize=20;" vertex="1" parent="1">
          <mxGeometry x="795" y="434" width="60" height="30" as="geometry" />
        </mxCell>
        <mxCell id="5M0yCWhsgOrtrZfP5pHo-362" value="0" style="text;html=1;strokeColor=none;fillColor=none;align=center;verticalAlign=middle;whiteSpace=wrap;rounded=0;fontSize=20;" vertex="1" parent="1">
          <mxGeometry x="835" y="434" width="60" height="30" as="geometry" />
        </mxCell>
        <mxCell id="5M0yCWhsgOrtrZfP5pHo-363" value="0" style="text;html=1;strokeColor=none;fillColor=none;align=center;verticalAlign=middle;whiteSpace=wrap;rounded=0;fontSize=20;" vertex="1" parent="1">
          <mxGeometry x="875" y="434" width="60" height="30" as="geometry" />
        </mxCell>
        <mxCell id="5M0yCWhsgOrtrZfP5pHo-364" value="0" style="text;html=1;strokeColor=none;fillColor=none;align=center;verticalAlign=middle;whiteSpace=wrap;rounded=0;fontSize=20;" vertex="1" parent="1">
          <mxGeometry x="915" y="434" width="60" height="30" as="geometry" />
        </mxCell>
        <mxCell id="5M0yCWhsgOrtrZfP5pHo-365" value="0" style="text;html=1;strokeColor=none;fillColor=none;align=center;verticalAlign=middle;whiteSpace=wrap;rounded=0;fontSize=20;" vertex="1" parent="1">
          <mxGeometry x="755" y="474" width="60" height="30" as="geometry" />
        </mxCell>
        <mxCell id="5M0yCWhsgOrtrZfP5pHo-366" value="1" style="text;html=1;strokeColor=none;fillColor=none;align=center;verticalAlign=middle;whiteSpace=wrap;rounded=0;fontSize=20;" vertex="1" parent="1">
          <mxGeometry x="795" y="474" width="60" height="30" as="geometry" />
        </mxCell>
        <mxCell id="5M0yCWhsgOrtrZfP5pHo-367" value="1" style="text;html=1;strokeColor=none;fillColor=none;align=center;verticalAlign=middle;whiteSpace=wrap;rounded=0;fontSize=20;" vertex="1" parent="1">
          <mxGeometry x="835" y="474" width="60" height="30" as="geometry" />
        </mxCell>
        <mxCell id="5M0yCWhsgOrtrZfP5pHo-368" value="1" style="text;html=1;strokeColor=none;fillColor=none;align=center;verticalAlign=middle;whiteSpace=wrap;rounded=0;fontSize=20;" vertex="1" parent="1">
          <mxGeometry x="875" y="474" width="60" height="30" as="geometry" />
        </mxCell>
        <mxCell id="5M0yCWhsgOrtrZfP5pHo-369" value="0" style="text;html=1;strokeColor=none;fillColor=none;align=center;verticalAlign=middle;whiteSpace=wrap;rounded=0;fontSize=20;" vertex="1" parent="1">
          <mxGeometry x="915" y="474" width="60" height="30" as="geometry" />
        </mxCell>
        <mxCell id="5M0yCWhsgOrtrZfP5pHo-370" value="1" style="text;html=1;strokeColor=none;fillColor=none;align=center;verticalAlign=middle;whiteSpace=wrap;rounded=0;fontSize=20;" vertex="1" parent="1">
          <mxGeometry x="755" y="514" width="60" height="30" as="geometry" />
        </mxCell>
        <mxCell id="5M0yCWhsgOrtrZfP5pHo-371" value="0" style="text;html=1;strokeColor=none;fillColor=none;align=center;verticalAlign=middle;whiteSpace=wrap;rounded=0;fontSize=20;" vertex="1" parent="1">
          <mxGeometry x="795" y="514" width="60" height="30" as="geometry" />
        </mxCell>
        <mxCell id="5M0yCWhsgOrtrZfP5pHo-372" value="1" style="text;html=1;strokeColor=none;fillColor=none;align=center;verticalAlign=middle;whiteSpace=wrap;rounded=0;fontSize=20;" vertex="1" parent="1">
          <mxGeometry x="835" y="514" width="60" height="30" as="geometry" />
        </mxCell>
        <mxCell id="5M0yCWhsgOrtrZfP5pHo-373" value="2" style="text;html=1;strokeColor=none;fillColor=none;align=center;verticalAlign=middle;whiteSpace=wrap;rounded=0;fontSize=20;" vertex="1" parent="1">
          <mxGeometry x="875" y="514" width="60" height="30" as="geometry" />
        </mxCell>
        <mxCell id="5M0yCWhsgOrtrZfP5pHo-374" value="1" style="text;html=1;strokeColor=none;fillColor=none;align=center;verticalAlign=middle;whiteSpace=wrap;rounded=0;fontSize=20;" vertex="1" parent="1">
          <mxGeometry x="915" y="514" width="60" height="30" as="geometry" />
        </mxCell>
        <mxCell id="5M0yCWhsgOrtrZfP5pHo-380" value="1" style="text;html=1;strokeColor=none;fillColor=none;align=center;verticalAlign=middle;whiteSpace=wrap;rounded=0;fontSize=20;" vertex="1" parent="1">
          <mxGeometry x="755" y="554" width="60" height="30" as="geometry" />
        </mxCell>
        <mxCell id="5M0yCWhsgOrtrZfP5pHo-381" value="4" style="text;html=1;strokeColor=none;fillColor=none;align=center;verticalAlign=middle;whiteSpace=wrap;rounded=0;fontSize=20;" vertex="1" parent="1">
          <mxGeometry x="795" y="554" width="60" height="30" as="geometry" />
        </mxCell>
        <mxCell id="5M0yCWhsgOrtrZfP5pHo-382" value="2" style="text;html=1;strokeColor=none;fillColor=none;align=center;verticalAlign=middle;whiteSpace=wrap;rounded=0;fontSize=20;" vertex="1" parent="1">
          <mxGeometry x="835" y="554" width="60" height="30" as="geometry" />
        </mxCell>
        <mxCell id="5M0yCWhsgOrtrZfP5pHo-383" value="1" style="text;html=1;strokeColor=none;fillColor=none;align=center;verticalAlign=middle;whiteSpace=wrap;rounded=0;fontSize=20;" vertex="1" parent="1">
          <mxGeometry x="875" y="554" width="60" height="30" as="geometry" />
        </mxCell>
        <mxCell id="5M0yCWhsgOrtrZfP5pHo-384" value="0" style="text;html=1;strokeColor=none;fillColor=none;align=center;verticalAlign=middle;whiteSpace=wrap;rounded=0;fontSize=20;" vertex="1" parent="1">
          <mxGeometry x="915" y="554" width="60" height="30" as="geometry" />
        </mxCell>
        <mxCell id="5M0yCWhsgOrtrZfP5pHo-385" value="0" style="text;html=1;strokeColor=none;fillColor=none;align=center;verticalAlign=middle;whiteSpace=wrap;rounded=0;fontSize=20;" vertex="1" parent="1">
          <mxGeometry x="755" y="594" width="60" height="30" as="geometry" />
        </mxCell>
        <mxCell id="5M0yCWhsgOrtrZfP5pHo-386" value="0" style="text;html=1;strokeColor=none;fillColor=none;align=center;verticalAlign=middle;whiteSpace=wrap;rounded=0;fontSize=20;" vertex="1" parent="1">
          <mxGeometry x="795" y="594" width="60" height="30" as="geometry" />
        </mxCell>
        <mxCell id="5M0yCWhsgOrtrZfP5pHo-387" value="1" style="text;html=1;strokeColor=none;fillColor=none;align=center;verticalAlign=middle;whiteSpace=wrap;rounded=0;fontSize=20;" vertex="1" parent="1">
          <mxGeometry x="835" y="594" width="60" height="30" as="geometry" />
        </mxCell>
        <mxCell id="5M0yCWhsgOrtrZfP5pHo-388" value="2" style="text;html=1;strokeColor=none;fillColor=none;align=center;verticalAlign=middle;whiteSpace=wrap;rounded=0;fontSize=20;" vertex="1" parent="1">
          <mxGeometry x="875" y="594" width="60" height="30" as="geometry" />
        </mxCell>
        <mxCell id="5M0yCWhsgOrtrZfP5pHo-389" value="1" style="text;html=1;strokeColor=none;fillColor=none;align=center;verticalAlign=middle;whiteSpace=wrap;rounded=0;fontSize=20;" vertex="1" parent="1">
          <mxGeometry x="915" y="594" width="60" height="30" as="geometry" />
        </mxCell>
        <mxCell id="5M0yCWhsgOrtrZfP5pHo-390" value="0" style="text;html=1;strokeColor=none;fillColor=none;align=center;verticalAlign=middle;whiteSpace=wrap;rounded=0;fontSize=20;" vertex="1" parent="1">
          <mxGeometry x="490" y="444" width="60" height="30" as="geometry" />
        </mxCell>
        <mxCell id="5M0yCWhsgOrtrZfP5pHo-391" value="0" style="text;html=1;strokeColor=none;fillColor=none;align=center;verticalAlign=middle;whiteSpace=wrap;rounded=0;fontSize=20;" vertex="1" parent="1">
          <mxGeometry x="560" y="444" width="60" height="30" as="geometry" />
        </mxCell>
        <mxCell id="5M0yCWhsgOrtrZfP5pHo-392" value="1" style="text;html=1;strokeColor=none;fillColor=none;align=center;verticalAlign=middle;whiteSpace=wrap;rounded=0;fontSize=20;" vertex="1" parent="1">
          <mxGeometry x="630" y="444" width="60" height="30" as="geometry" />
        </mxCell>
        <mxCell id="5M0yCWhsgOrtrZfP5pHo-393" value="1" style="text;html=1;strokeColor=none;fillColor=none;align=center;verticalAlign=middle;whiteSpace=wrap;rounded=0;fontSize=20;" vertex="1" parent="1">
          <mxGeometry x="490" y="514" width="60" height="30" as="geometry" />
        </mxCell>
        <mxCell id="5M0yCWhsgOrtrZfP5pHo-394" value="0" style="text;html=1;strokeColor=none;fillColor=none;align=center;verticalAlign=middle;whiteSpace=wrap;rounded=0;fontSize=20;" vertex="1" parent="1">
          <mxGeometry x="560" y="514" width="60" height="30" as="geometry" />
        </mxCell>
        <mxCell id="5M0yCWhsgOrtrZfP5pHo-395" value="0" style="text;html=1;strokeColor=none;fillColor=none;align=center;verticalAlign=middle;whiteSpace=wrap;rounded=0;fontSize=20;" vertex="1" parent="1">
          <mxGeometry x="630" y="514" width="60" height="30" as="geometry" />
        </mxCell>
        <mxCell id="5M0yCWhsgOrtrZfP5pHo-396" value="0" style="text;html=1;strokeColor=none;fillColor=none;align=center;verticalAlign=middle;whiteSpace=wrap;rounded=0;fontSize=20;" vertex="1" parent="1">
          <mxGeometry x="490" y="584" width="60" height="30" as="geometry" />
        </mxCell>
        <mxCell id="5M0yCWhsgOrtrZfP5pHo-397" value="1" style="text;html=1;strokeColor=none;fillColor=none;align=center;verticalAlign=middle;whiteSpace=wrap;rounded=0;fontSize=20;" vertex="1" parent="1">
          <mxGeometry x="560" y="584" width="60" height="30" as="geometry" />
        </mxCell>
        <mxCell id="5M0yCWhsgOrtrZfP5pHo-398" value="1" style="text;html=1;strokeColor=none;fillColor=none;align=center;verticalAlign=middle;whiteSpace=wrap;rounded=0;fontSize=20;" vertex="1" parent="1">
          <mxGeometry x="630" y="584" width="60" height="30" as="geometry" />
        </mxCell>
        <mxCell id="5M0yCWhsgOrtrZfP5pHo-399" value="Image&lt;span style=&quot;color: rgba(0 , 0 , 0 , 0) ; font-family: monospace ; font-size: 0px&quot;&gt;%3CmxGraphModel%3E%3Croot%3E%3CmxCell%20id%3D%220%22%2F%3E%3CmxCell%20id%3D%221%22%20parent%3D%220%22%2F%3E%3CmxCell%20id%3D%222%22%20value%3D%220%22%20style%3D%22text%3Bhtml%3D1%3BstrokeColor%3Dnone%3BfillColor%3Dnone%3Balign%3Dcenter%3BverticalAlign%3Dmiddle%3BwhiteSpace%3Dwrap%3Brounded%3D0%3BfontSize%3D20%3B%22%20vertex%3D%221%22%20parent%3D%221%22%3E%3CmxGeometry%20x%3D%22465%22%20y%3D%22800%22%20width%3D%2260%22%20height%3D%2230%22%20as%3D%22geometry%22%2F%3E%3C%2FmxCell%3E%3CmxCell%20id%3D%223%22%20value%3D%220%22%20style%3D%22text%3Bhtml%3D1%3BstrokeColor%3Dnone%3BfillColor%3Dnone%3Balign%3Dcenter%3BverticalAlign%3Dmiddle%3BwhiteSpace%3Dwrap%3Brounded%3D0%3BfontSize%3D20%3B%22%20vertex%3D%221%22%20parent%3D%221%22%3E%3CmxGeometry%20x%3D%22535%22%20y%3D%22800%22%20width%3D%2260%22%20height%3D%2230%22%20as%3D%22geometry%22%2F%3E%3C%2FmxCell%3E%3CmxCell%20id%3D%224%22%20value%3D%220%22%20style%3D%22text%3Bhtml%3D1%3BstrokeColor%3Dnone%3BfillColor%3Dnone%3Balign%3Dcenter%3BverticalAlign%3Dmiddle%3BwhiteSpace%3Dwrap%3Brounded%3D0%3BfontSize%3D20%3B%22%20vertex%3D%221%22%20parent%3D%221%22%3E%3CmxGeometry%20x%3D%22605%22%20y%3D%22800%22%20width%3D%2260%22%20height%3D%2230%22%20as%3D%22geometry%22%2F%3E%3C%2FmxCell%3E%3C%2Froot%3E%3C%2FmxGraphModel%3E&lt;/span&gt;" style="text;html=1;strokeColor=none;fillColor=none;align=center;verticalAlign=middle;whiteSpace=wrap;rounded=0;fontSize=20;" vertex="1" parent="1">
          <mxGeometry x="215" y="694" width="60" height="30" as="geometry" />
        </mxCell>
        <mxCell id="5M0yCWhsgOrtrZfP5pHo-400" value="Feature Detector" style="text;html=1;strokeColor=none;fillColor=none;align=center;verticalAlign=middle;whiteSpace=wrap;rounded=0;fontSize=20;" vertex="1" parent="1">
          <mxGeometry x="502.5" y="694" width="175" height="30" as="geometry" />
        </mxCell>
        <mxCell id="5M0yCWhsgOrtrZfP5pHo-401" value="Feature Map" style="text;html=1;strokeColor=none;fillColor=none;align=center;verticalAlign=middle;whiteSpace=wrap;rounded=0;fontSize=20;" vertex="1" parent="1">
          <mxGeometry x="777.5" y="694" width="175" height="30" as="geometry" />
        </mxCell>
      </root>
    </mxGraphModel>
  </diagram>
</mxfile>
